<svg width="22" height="22" viewBox="0 0 22 22" fill="none" xmlns="http://www.w3.org/2000/svg">
<path id="Vector" d="M17.9474 2.30563H21.4211C21.5746 2.30563 21.7219 2.36666 21.8304 2.47529C21.939 2.58392 22 2.73125 22 2.88488V21.4208C22 21.5744 21.939 21.7217 21.8304 21.8303C21.7219 21.939 21.5746 22 21.4211 22H0.578948C0.425401 22 0.278143 21.939 0.16957 21.8303C0.060996 21.7217 0 21.5744 0 21.4208V2.88488C0 2.73125 0.060996 2.58392 0.16957 2.47529C0.278143 2.36666 0.425401 2.30563 0.578948 2.30563H4.05263V1.73797C4.0526 1.50975 4.0975 1.28376 4.18477 1.0729C4.27204 0.862038 4.39997 0.670443 4.56126 0.509055C4.72254 0.347666 4.91402 0.219644 5.12476 0.1323C5.3355 0.0449559 5.56137 0 5.78947 0C6.01758 0 6.24345 0.0449559 6.45419 0.1323C6.66493 0.219644 6.8564 0.347666 7.01769 0.509055C7.17897 0.670443 7.3069 0.862038 7.39417 1.0729C7.48144 1.28376 7.52635 1.50975 7.52632 1.73797V2.30563H14.4737V1.73797C14.4737 1.50975 14.5186 1.28376 14.6058 1.0729C14.6931 0.862038 14.821 0.670443 14.9823 0.509055C15.1436 0.347666 15.3351 0.219644 15.5458 0.1323C15.7565 0.0449559 15.9824 0 16.2105 0C16.4386 0 16.6645 0.0449559 16.8752 0.1323C17.086 0.219644 17.2775 0.347666 17.4387 0.509055C17.6 0.670443 17.728 0.862038 17.8152 1.0729C17.9025 1.28376 17.9474 1.50975 17.9474 1.73797V2.30563ZM17.9474 3.46413V4.03179C17.9474 4.26001 17.9025 4.486 17.8152 4.69686C17.728 4.90772 17.6 5.09932 17.4387 5.26071C17.2775 5.42209 17.086 5.55012 16.8752 5.63746C16.6645 5.7248 16.4386 5.76976 16.2105 5.76976C15.9824 5.76976 15.7565 5.7248 15.5458 5.63746C15.3351 5.55012 15.1436 5.42209 14.9823 5.26071C14.821 5.09932 14.6931 4.90772 14.6058 4.69686C14.5186 4.486 14.4737 4.26001 14.4737 4.03179V3.46413H7.52632V4.03179C7.52635 4.26001 7.48144 4.486 7.39417 4.69686C7.3069 4.90772 7.17897 5.09932 7.01769 5.26071C6.8564 5.42209 6.66493 5.55012 6.45419 5.63746C6.24345 5.7248 6.01758 5.76976 5.78947 5.76976C5.56137 5.76976 5.3355 5.7248 5.12476 5.63746C4.91402 5.55012 4.72254 5.42209 4.56126 5.26071C4.39997 5.09932 4.27204 4.90772 4.18477 4.69686C4.0975 4.486 4.0526 4.26001 4.05263 4.03179V3.46413H1.15789V20.8415H20.8421V3.46413H17.9474ZM2.89474 9.25659C2.74119 9.25659 2.59393 9.19556 2.48536 9.08693C2.37679 8.9783 2.31579 8.83097 2.31579 8.67734C2.31579 8.52372 2.37679 8.37638 2.48536 8.26775C2.59393 8.15912 2.74119 8.09809 2.89474 8.09809H19.1053C19.2588 8.09809 19.4061 8.15912 19.5146 8.26775C19.6232 8.37638 19.6842 8.52372 19.6842 8.67734C19.6842 8.83097 19.6232 8.9783 19.5146 9.08693C19.4061 9.19556 19.2588 9.25659 19.1053 9.25659H2.89474ZM14.0638 11.7427C14.1725 11.6339 14.3199 11.5728 14.4737 11.5728C14.6274 11.5728 14.7749 11.6339 14.8836 11.7427C14.9923 11.8515 15.0534 11.999 15.0534 12.1528C15.0534 12.3066 14.9923 12.4542 14.8836 12.5629L10.252 17.1969C10.1982 17.2508 10.1343 17.2936 10.064 17.3228C9.99366 17.352 9.91826 17.3671 9.8421 17.3671C9.76595 17.3671 9.69055 17.352 9.62021 17.3228C9.54988 17.2936 9.48599 17.2508 9.43221 17.1969L7.11642 14.8799C7.00771 14.7711 6.94664 14.6236 6.94664 14.4698C6.94664 14.316 7.00771 14.1685 7.11642 14.0597C7.22513 13.9509 7.37257 13.8898 7.52632 13.8898C7.68006 13.8898 7.8275 13.9509 7.93621 14.0597L9.8421 15.9677L14.0638 11.7427ZM6.36842 4.03295V1.73681C6.36842 1.58319 6.30743 1.43586 6.19885 1.32723C6.09028 1.2186 5.94302 1.15757 5.78947 1.15757C5.63593 1.15757 5.48867 1.2186 5.3801 1.32723C5.27152 1.43586 5.21053 1.58319 5.21053 1.73681V4.03295C5.21053 4.18657 5.27152 4.3339 5.3801 4.44253C5.48867 4.55116 5.63593 4.61219 5.78947 4.61219C5.94302 4.61219 6.09028 4.55116 6.19885 4.44253C6.30743 4.3339 6.36842 4.18657 6.36842 4.03295ZM16.7895 4.03295V1.73681C16.7895 1.58319 16.7285 1.43586 16.6199 1.32723C16.5113 1.2186 16.3641 1.15757 16.2105 1.15757C16.057 1.15757 15.9097 1.2186 15.8011 1.32723C15.6926 1.43586 15.6316 1.58319 15.6316 1.73681V4.03295C15.6316 4.18657 15.6926 4.3339 15.8011 4.44253C15.9097 4.55116 16.057 4.61219 16.2105 4.61219C16.3641 4.61219 16.5113 4.55116 16.6199 4.44253C16.7285 4.3339 16.7895 4.18657 16.7895 4.03295Z" fill="#FB5111"/>
</svg>
