<svg width="42" height="41" viewBox="0 0 42 41" fill="none" xmlns="http://www.w3.org/2000/svg">
<path d="M8.74957 40.3648C7.02223 40.3648 5.65582 39.9094 4.80504 39.0586C4.57301 38.8266 4.3152 38.5859 4.04879 38.3281C2.51051 36.8672 0.594103 35.0453 0.697228 32.682C0.765978 31.0578 1.75426 29.4938 3.73082 27.9039C6.06832 26.0305 7.89879 25.1539 9.48863 25.1539C11.4652 25.1539 12.7285 26.4344 14.0691 27.7922C14.2066 27.9297 14.3441 28.0758 14.4902 28.2133C14.5761 28.2992 14.7136 28.3938 15.0058 28.3938C15.8566 28.3938 18.048 27.6289 23.1785 22.4984C25.3957 20.2812 27.0199 18.3906 27.9996 16.8781C28.9793 15.3742 29.3144 14.2227 28.8933 13.8016C28.7472 13.6555 28.6097 13.518 28.4722 13.3805C27.2519 12.1773 26.1004 11.0516 25.8683 9.39297C25.6191 7.63984 26.4613 5.68047 28.5754 3.04219C30.2168 0.996875 31.841 0 33.5254 0C35.8027 0 37.573 1.86484 38.991 3.36016C39.2402 3.62656 39.4808 3.87578 39.7129 4.10781C40.5894 4.98438 41.0363 6.38516 41.0191 8.16406C41.0019 9.83984 40.5636 11.8594 39.7558 14.0078C37.9254 18.8719 34.3074 24.157 29.5722 28.8922C25.9199 32.5445 21.941 35.5438 18.048 37.5633C14.6191 39.3766 11.3105 40.3648 8.74957 40.3648ZM9.48863 26.9758C8.34567 26.9758 6.83317 27.7406 4.8652 29.3219C3.3441 30.5422 2.54488 31.7023 2.50192 32.768C2.44176 34.3063 3.95426 35.75 5.29488 37.0219C5.56988 37.2797 5.8277 37.5289 6.07692 37.7781C6.57535 38.2766 7.52067 38.5516 8.74098 38.5516C11.0183 38.5516 14.0347 37.6406 17.223 35.9734C20.9441 34.0313 24.7769 31.1523 28.3004 27.6289C32.855 23.0742 36.3269 18.0125 38.0714 13.3891C39.7558 8.91172 39.3261 6.29063 38.441 5.41406C38.1918 5.16484 37.9425 4.90703 37.6847 4.63203C36.4386 3.32578 35.0293 1.83906 33.5254 1.83906C32.434 1.83906 31.248 2.63828 29.9847 4.20234C28.2488 6.35938 27.4925 7.98359 27.6558 9.16953C27.8019 10.218 28.6527 11.0516 29.7355 12.1172C29.8816 12.2547 30.0191 12.4008 30.1652 12.5469C31.2996 13.6813 31.0847 15.4773 29.5121 17.8922C28.4636 19.5078 26.7621 21.493 24.4504 23.8047C20.0675 28.1875 17.0597 30.2328 14.9972 30.2328C14.2839 30.2328 13.6652 29.9836 13.1925 29.5195C13.0464 29.3734 12.9004 29.2273 12.7629 29.0898C11.4566 27.732 10.6488 26.9758 9.48863 26.9758Z" fill="url(#paint0_linear_6921_51495)"/>
<defs>
<linearGradient id="paint0_linear_6921_51495" x1="-29.824" y1="-18.5468" x2="80.3358" y2="67.5356" gradientUnits="userSpaceOnUse">
<stop stop-color="#FFB602"/>
<stop offset="0.536458" stop-color="#FF5A12"/>
<stop offset="0.979167" stop-color="#DD0B0B"/>
</linearGradient>
</defs>
</svg>
