<svg width="60" height="60" viewBox="0 0 60 60" fill="none" xmlns="http://www.w3.org/2000/svg">
<circle cx="30" cy="30" r="29.5" stroke="#4F4F4F"/>
<path d="M20.406 42.0002C21.7349 42.0002 22.8121 40.8966 22.8121 39.5353C22.8121 38.1739 21.7349 37.0703 20.406 37.0703C19.0772 37.0703 18 38.1739 18 39.5353C18 40.8966 19.0772 42.0002 20.406 42.0002Z" fill="url(#paint0_linear_6921_62861)"/>
<path d="M19.4306 31.1758C19.0716 31.1758 18.7803 31.4742 18.7803 31.842C18.7803 32.2097 19.0716 32.5082 19.4306 32.5082C23.751 32.5082 27.2658 36.109 27.2658 40.5352C27.2658 40.9029 27.5571 41.2014 27.9161 41.2014C28.275 41.2014 28.5663 40.9029 28.5663 40.5352C28.5663 35.3742 24.4679 31.1758 19.4306 31.1758Z" fill="url(#paint1_linear_6921_62861)"/>
<path d="M19.4306 24.4062C19.0716 24.4062 18.7803 24.7047 18.7803 25.0725C18.7803 25.4402 19.0716 25.7387 19.4306 25.7387C27.3939 25.7387 33.8723 32.3757 33.8723 40.534C33.8723 40.9017 34.1636 41.2002 34.5226 41.2002C34.8815 41.2002 35.1729 40.9017 35.1729 40.534C35.1729 31.6412 28.1108 24.4062 19.4306 24.4062Z" fill="url(#paint2_linear_6921_62861)"/>
<path d="M19.4306 18C19.0716 18 18.7803 18.2985 18.7803 18.6662C18.7803 19.0339 19.0716 19.3324 19.4306 19.3324C30.842 19.3324 40.1257 28.8434 40.1257 40.5343C40.1257 40.902 40.417 41.2005 40.776 41.2005C41.1349 41.2005 41.4263 40.902 41.4263 40.5343C41.4263 28.109 31.5589 18 19.4306 18Z" fill="url(#paint3_linear_6921_62861)"/>
<defs>
<linearGradient id="paint0_linear_6921_62861" x1="14.3584" y1="34.8051" x2="27.7338" y2="45.0171" gradientUnits="userSpaceOnUse">
<stop stop-color="#FFB602"/>
<stop offset="0.536458" stop-color="#FF5A12"/>
<stop offset="0.979167" stop-color="#DD0B0B"/>
</linearGradient>
<linearGradient id="paint1_linear_6921_62861" x1="11.3746" y1="26.5692" x2="38.5754" y2="47.3367" gradientUnits="userSpaceOnUse">
<stop stop-color="#FFB602"/>
<stop offset="0.536458" stop-color="#FF5A12"/>
<stop offset="0.979167" stop-color="#DD0B0B"/>
</linearGradient>
<linearGradient id="paint2_linear_6921_62861" x1="6.37507" y1="16.6898" x2="51.9392" y2="51.4773" gradientUnits="userSpaceOnUse">
<stop stop-color="#FFB602"/>
<stop offset="0.536458" stop-color="#FF5A12"/>
<stop offset="0.979167" stop-color="#DD0B0B"/>
</linearGradient>
<linearGradient id="paint3_linear_6921_62861" x1="1.64276" y1="7.33986" x2="64.5886" y2="55.3981" gradientUnits="userSpaceOnUse">
<stop stop-color="#FFB602"/>
<stop offset="0.536458" stop-color="#FF5A12"/>
<stop offset="0.979167" stop-color="#DD0B0B"/>
</linearGradient>
</defs>
</svg>
