<svg width="60" height="60" viewBox="0 0 60 60" fill="none" xmlns="http://www.w3.org/2000/svg">
<circle cx="30" cy="30" r="29.5" stroke="#4F4F4F"/>
<g clip-path="url(#clip0_6921_62816)">
<path d="M26.8083 29.8398H26.7811V31.072H27.9452C29.0059 31.072 29.539 31.6118 29.7348 32.2866H26.8083V33.507H29.7348C29.539 34.1759 29.0059 34.7157 27.9452 34.7157H26.7811V35.942H27.0857L30.5889 39.6209L31.3831 38.7467L28.6632 35.8657C29.2116 35.7568 29.718 35.4762 30.1195 35.0588C30.5209 34.6414 30.7996 34.1058 30.9207 33.5188H32.471V32.2866H30.8935C30.8007 31.8386 30.6147 31.4193 30.3495 31.0603H32.4384V29.8398H26.8083Z" fill="url(#paint0_linear_6921_62816)"/>
</g>
<path d="M37.5782 20.5152H41.5611C41.7372 20.5152 41.906 20.5818 42.0305 20.7003C42.155 20.8188 42.2249 20.9796 42.2249 21.1471V41.3681C42.2249 41.5357 42.155 41.6964 42.0305 41.8149C41.906 41.9334 41.7372 42 41.5611 42H17.6638C17.4878 42 17.3189 41.9334 17.1944 41.8149C17.0699 41.6964 17 41.5357 17 41.3681V21.1471C17 20.9796 17.0699 20.8188 17.1944 20.7003C17.3189 20.5818 17.4878 20.5152 17.6638 20.5152H21.6467V19.896C21.6467 19.647 21.6981 19.4005 21.7982 19.1704C21.8983 18.9404 22.045 18.7314 22.2299 18.5553C22.4148 18.3793 22.6344 18.2396 22.876 18.1443C23.1176 18.049 23.3766 18 23.6381 18C23.8997 18 24.1587 18.049 24.4003 18.1443C24.6419 18.2396 24.8615 18.3793 25.0464 18.5553C25.2313 18.7314 25.378 18.9404 25.4781 19.1704C25.5781 19.4005 25.6296 19.647 25.6296 19.896V20.5152H33.5953V19.896C33.5953 19.647 33.6468 19.4005 33.7469 19.1704C33.8469 18.9404 33.9936 18.7314 34.1785 18.5553C34.3634 18.3793 34.583 18.2396 34.8246 18.1443C35.0663 18.049 35.3252 18 35.5868 18C35.8483 18 36.1073 18.049 36.3489 18.1443C36.5906 18.2396 36.8101 18.3793 36.995 18.5553C37.18 18.7314 37.3266 18.9404 37.4267 19.1704C37.5268 19.4005 37.5783 19.647 37.5782 19.896V20.5152ZM37.5782 21.779V22.3983C37.5783 22.6473 37.5268 22.8938 37.4267 23.1238C37.3266 23.3539 37.18 23.5629 36.995 23.739C36.8101 23.915 36.5906 24.0547 36.3489 24.15C36.1073 24.2452 35.8483 24.2943 35.5868 24.2943C35.3252 24.2943 35.0663 24.2452 34.8246 24.15C34.583 24.0547 34.3634 23.915 34.1785 23.739C33.9936 23.5629 33.8469 23.3539 33.7469 23.1238C33.6468 22.8938 33.5953 22.6473 33.5953 22.3983V21.779H25.6296V22.3983C25.6296 22.6473 25.5781 22.8938 25.4781 23.1238C25.378 23.3539 25.2313 23.5629 25.0464 23.739C24.8615 23.915 24.6419 24.0547 24.4003 24.15C24.1587 24.2452 23.8997 24.2943 23.6381 24.2943C23.3766 24.2943 23.1176 24.2452 22.876 24.15C22.6344 24.0547 22.4148 23.915 22.2299 23.739C22.045 23.5629 21.8983 23.3539 21.7982 23.1238C21.6981 22.8938 21.6467 22.6473 21.6467 22.3983V21.779H18.3276V40.7362H40.8973V21.779H37.5782ZM20.3191 28.0981C20.143 28.0981 19.9742 28.0315 19.8497 27.913C19.7252 27.7945 19.6553 27.6338 19.6553 27.4662C19.6553 27.2986 19.7252 27.1379 19.8497 27.0194C19.9742 26.9009 20.143 26.8343 20.3191 26.8343H38.9058C39.0819 26.8343 39.2507 26.9009 39.3752 27.0194C39.4997 27.1379 39.5697 27.2986 39.5697 27.4662C39.5697 27.6338 39.4997 27.7945 39.3752 27.913C39.2507 28.0315 39.0819 28.0981 38.9058 28.0981H20.3191ZM24.3019 22.3996V19.8947C24.3019 19.7271 24.232 19.5664 24.1075 19.4479C23.983 19.3294 23.8142 19.2628 23.6381 19.2628C23.4621 19.2628 23.2932 19.3294 23.1687 19.4479C23.0443 19.5664 22.9743 19.7271 22.9743 19.8947V22.3996C22.9743 22.5672 23.0443 22.7279 23.1687 22.8464C23.2932 22.9649 23.4621 23.0315 23.6381 23.0315C23.8142 23.0315 23.983 22.9649 24.1075 22.8464C24.232 22.7279 24.3019 22.5672 24.3019 22.3996ZM36.2506 22.3996V19.8947C36.2506 19.7271 36.1807 19.5664 36.0562 19.4479C35.9317 19.3294 35.7628 19.2628 35.5868 19.2628C35.4107 19.2628 35.2419 19.3294 35.1174 19.4479C34.9929 19.5664 34.923 19.7271 34.923 19.8947V22.3996C34.923 22.5672 34.9929 22.7279 35.1174 22.8464C35.2419 22.9649 35.4107 23.0315 35.5868 23.0315C35.7628 23.0315 35.9317 22.9649 36.0562 22.8464C36.1807 22.7279 36.2506 22.5672 36.2506 22.3996Z" fill="url(#paint1_linear_6921_62816)"/>
<defs>
<linearGradient id="paint0_linear_6921_62816" x1="22.4752" y1="25.3456" x2="43.2156" y2="34.7828" gradientUnits="userSpaceOnUse">
<stop stop-color="#FFB602"/>
<stop offset="0.536458" stop-color="#FF5A12"/>
<stop offset="0.979167" stop-color="#DD0B0B"/>
</linearGradient>
<linearGradient id="paint1_linear_6921_62816" x1="-2.08913" y1="6.9725" x2="64.1366" y2="61.4166" gradientUnits="userSpaceOnUse">
<stop stop-color="#FFB602"/>
<stop offset="0.536458" stop-color="#FF5A12"/>
<stop offset="0.979167" stop-color="#DD0B0B"/>
</linearGradient>
<clipPath id="clip0_6921_62816">
<rect width="5.66274" height="9.78109" fill="white" transform="translate(26.7811 29.8398)"/>
</clipPath>
</defs>
</svg>
