<svg width="60" height="60" viewBox="0 0 60 60" fill="none" xmlns="http://www.w3.org/2000/svg">
<circle cx="30" cy="30" r="29.5" stroke="#4F4F4F"/>
<g clip-path="url(#clip0_6921_62846)">
<path d="M27 33L33 27" stroke="url(#paint0_linear_6921_62846)" stroke-width="1.5" stroke-linecap="round" stroke-linejoin="round"/>
<path d="M27.5 28C27.7761 28 28 27.7761 28 27.5C28 27.2239 27.7761 27 27.5 27C27.2239 27 27 27.2239 27 27.5C27 27.7761 27.2239 28 27.5 28Z" stroke="url(#paint1_linear_6921_62846)" stroke-width="1.5" stroke-linecap="round" stroke-linejoin="round"/>
<path d="M32.5 33C32.7761 33 33 32.7761 33 32.5C33 32.2239 32.7761 32 32.5 32C32.2239 32 32 32.2239 32 32.5C32 32.7761 32.2239 33 32.5 33Z" stroke="url(#paint2_linear_6921_62846)" stroke-width="1.5" stroke-linecap="round" stroke-linejoin="round"/>
<path d="M23.0005 25.2005C23.0005 24.617 23.2322 24.0574 23.6448 23.6448C24.0574 23.2322 24.617 23.0005 25.2005 23.0005H26.2005C26.7814 23.0001 27.3386 22.7701 27.7505 22.3605L28.4505 21.6605C28.6549 21.4549 28.898 21.2917 29.1657 21.1804C29.4334 21.069 29.7205 21.0117 30.0105 21.0117C30.3004 21.0117 30.5875 21.069 30.8552 21.1804C31.1229 21.2917 31.366 21.4549 31.5705 21.6605L32.2705 22.3605C32.6824 22.7701 33.2396 23.0001 33.8205 23.0005H34.8205C35.4039 23.0005 35.9635 23.2322 36.3761 23.6448C36.7887 24.0574 37.0205 24.617 37.0205 25.2005V26.2005C37.0208 26.7814 37.2509 27.3386 37.6605 27.7505L38.3605 28.4505C38.5661 28.6549 38.7292 28.898 38.8406 29.1657C38.9519 29.4334 39.0092 29.7205 39.0092 30.0105C39.0092 30.3004 38.9519 30.5875 38.8406 30.8552C38.7292 31.1229 38.5661 31.366 38.3605 31.5705L37.6605 32.2705C37.2509 32.6824 37.0208 33.2396 37.0205 33.8205V34.8205C37.0205 35.4039 36.7887 35.9635 36.3761 36.3761C35.9635 36.7887 35.4039 37.0205 34.8205 37.0205H33.8205C33.2396 37.0208 32.6824 37.2509 32.2705 37.6605L31.5705 38.3605C31.366 38.5661 31.1229 38.7292 30.8552 38.8406C30.5875 38.9519 30.3004 39.0092 30.0105 39.0092C29.7205 39.0092 29.4334 38.9519 29.1657 38.8406C28.898 38.7292 28.6549 38.5661 28.4505 38.3605L27.7505 37.6605C27.3386 37.2509 26.7814 37.0208 26.2005 37.0205H25.2005C24.617 37.0205 24.0574 36.7887 23.6448 36.3761C23.2322 35.9635 23.0005 35.4039 23.0005 34.8205V33.8205C23.0001 33.2396 22.7701 32.6824 22.3605 32.2705L21.6605 31.5705C21.4549 31.366 21.2917 31.1229 21.1804 30.8552C21.069 30.5875 21.0117 30.3004 21.0117 30.0105C21.0117 29.7205 21.069 29.4334 21.1804 29.1657C21.2917 28.898 21.4549 28.6549 21.6605 28.4505L22.3605 27.7505C22.7701 27.3386 23.0001 26.7814 23.0005 26.2005V25.2005Z" stroke="url(#paint3_linear_6921_62846)" stroke-width="1.5" stroke-linecap="round" stroke-linejoin="round"/>
</g>
<defs>
<linearGradient id="paint0_linear_6921_62846" x1="22.4595" y1="24.2431" x2="38.8378" y2="37.0539" gradientUnits="userSpaceOnUse">
<stop stop-color="#FFB602"/>
<stop offset="0.536458" stop-color="#FF5A12"/>
<stop offset="0.979167" stop-color="#DD0B0B"/>
</linearGradient>
<linearGradient id="paint1_linear_6921_62846" x1="26.2432" y1="26.5405" x2="28.973" y2="28.6757" gradientUnits="userSpaceOnUse">
<stop stop-color="#FFB602"/>
<stop offset="0.536458" stop-color="#FF5A12"/>
<stop offset="0.979167" stop-color="#DD0B0B"/>
</linearGradient>
<linearGradient id="paint2_linear_6921_62846" x1="31.2432" y1="31.5405" x2="33.973" y2="33.6757" gradientUnits="userSpaceOnUse">
<stop stop-color="#FFB602"/>
<stop offset="0.536458" stop-color="#FF5A12"/>
<stop offset="0.979167" stop-color="#DD0B0B"/>
</linearGradient>
<linearGradient id="paint3_linear_6921_62846" x1="7.392" y1="12.7422" x2="56.5203" y2="51.1693" gradientUnits="userSpaceOnUse">
<stop stop-color="#FFB602"/>
<stop offset="0.536458" stop-color="#FF5A12"/>
<stop offset="0.979167" stop-color="#DD0B0B"/>
</linearGradient>
<clipPath id="clip0_6921_62846">
<rect width="24" height="24" fill="white" transform="translate(18 18)"/>
</clipPath>
</defs>
</svg>
