<svg width="24" height="24" viewBox="0 0 24 24" fill="none" xmlns="http://www.w3.org/2000/svg">
<path d="M13.7226 18.654L10.1126 22.263C7.79663 24.578 4.04963 24.578 1.73463 22.263C0.614634 21.145 -0.000366211 19.657 -0.000366211 18.075C-0.000366211 16.493 0.614634 15.005 1.73363 13.886L6.59963 9.021C8.95463 6.666 12.7136 6.759 14.9766 9.021C15.4296 9.474 15.7866 9.994 16.0656 10.548L14.4726 12.14C14.2926 11.527 13.9726 10.951 13.5086 10.488C12.0606 9.04 9.57863 8.978 8.06963 10.487L8.06863 10.489L3.20163 15.354C1.70163 16.853 1.70163 19.295 3.20163 20.794C4.71863 22.311 7.15963 22.282 8.64363 20.794L11.0686 18.37C12.0616 18.654 12.8596 18.705 13.7226 18.654ZM13.8836 1.736L10.3096 5.312C11.1566 5.262 11.9646 5.312 12.9626 5.595L15.3556 3.206C16.8536 1.704 19.2956 1.706 20.7956 3.205C22.3126 4.723 22.2816 7.164 20.7956 8.647L15.9646 13.478L15.9616 13.48C14.5236 14.917 12.0756 15.032 10.5226 13.478C10.0496 13.004 9.73763 12.436 9.56663 11.835L9.48263 11.903L7.96563 13.418C8.24563 13.974 8.60063 14.493 9.05363 14.946C11.2986 17.191 15.0576 17.32 17.4316 14.946L22.2636 10.115C24.5776 7.799 24.5796 4.053 22.2626 1.738C19.9456 -0.582999 16.1956 -0.574999 13.8836 1.736Z" fill="url(#paint0_linear_6921_51511)"/>
<defs>
<linearGradient id="paint0_linear_6921_51511" x1="-18.1626" y1="-11.0272" x2="47.3494" y2="40.2168" gradientUnits="userSpaceOnUse">
<stop stop-color="#FFB602"/>
<stop offset="0.536458" stop-color="#FF5A12"/>
<stop offset="0.979167" stop-color="#DD0B0B"/>
</linearGradient>
</defs>
</svg>
