<svg width="47" height="47" viewBox="0 0 47 47" fill="none" xmlns="http://www.w3.org/2000/svg">
<path fill-rule="evenodd" clip-rule="evenodd" d="M8.52277 7.34983L12.498 11.325C18.546 5.84721 27.7899 5.84718 33.8379 11.3249L37.8131 7.34975C29.5659 -0.316611 16.7699 -0.316581 8.52277 7.34983ZM38.9444 8.48116L34.9692 12.4564C40.4457 18.5042 40.4455 27.7468 34.9687 33.7945L38.9439 37.7694C46.6092 29.5227 46.6093 16.7281 38.9444 8.48116ZM37.8125 38.9007L33.8373 34.9258C27.7895 40.4029 18.5464 40.4029 12.4986 34.9258L8.52337 38.9007C16.7703 46.5663 29.5655 46.5664 37.8125 38.9007ZM7.39201 37.7693L11.3672 33.7944C5.89043 27.7468 5.89023 18.5043 11.3667 12.4565L7.39145 8.48126C-0.273378 16.7282 -0.273192 29.5226 7.39201 37.7693ZM13.0246 13.0333C7.46255 18.6231 7.47112 27.6635 13.0503 33.2428C18.6381 38.8306 27.6978 38.8306 33.2856 33.2428C38.8642 27.6642 38.8734 18.6251 33.3132 13.0351C33.3038 13.0266 33.2945 13.0178 33.2855 13.0087C33.2764 12.9996 33.2676 12.9904 33.259 12.981C27.6773 7.42786 18.6558 7.42852 13.0749 12.983C13.0669 12.9917 13.0587 13.0003 13.0503 13.0087C13.0419 13.0171 13.0333 13.0253 13.0246 13.0333ZM6.81613 6.77316C15.847 -2.25772 30.4889 -2.25772 39.5198 6.77316C48.5507 15.804 48.5507 30.4459 39.5198 39.4768C30.4889 48.5077 15.847 48.5077 6.81613 39.4768C-2.21475 30.4459 -2.21475 15.804 6.81613 6.77316Z" fill="url(#paint0_linear_6921_51488)"/>
<defs>
<linearGradient id="paint0_linear_6921_51488" x1="-34.957" y1="-21.2509" x2="91.2929" y2="77.4992" gradientUnits="userSpaceOnUse">
<stop stop-color="#FFB602"/>
<stop offset="0.536458" stop-color="#FF5A12"/>
<stop offset="0.979167" stop-color="#DD0B0B"/>
</linearGradient>
</defs>
</svg>
