<svg width="47" height="47" viewBox="0 0 47 47" fill="none" xmlns="http://www.w3.org/2000/svg">
<path fill-rule="evenodd" clip-rule="evenodd" d="M23.4234 0C36.3274 0 46.8038 10.53 46.8038 23.5C46.8038 36.47 36.3274 47 23.4234 47C10.5193 47 0.0429688 36.47 0.0429688 23.5C0.0429688 10.53 10.5193 0 23.4234 0ZM23.4234 1.95833C35.2519 1.95833 44.8554 11.611 44.8554 23.5C44.8554 35.389 35.2519 45.0417 23.4234 45.0417C11.5948 45.0417 1.99134 35.389 1.99134 23.5C1.99134 11.611 11.5948 1.95833 23.4234 1.95833ZM23.5266 35.25C24.4346 35.25 25.1711 34.5098 25.1711 33.5952C25.1711 32.6826 24.4346 31.9424 23.5266 31.9424C22.6187 31.9424 21.8803 32.6826 21.8803 33.5952C21.8803 34.5098 22.6187 35.25 23.5266 35.25ZM24.4385 29.7236H22.494C22.4258 27.448 22.8486 25.7012 24.3235 23.9602C25.2802 22.844 27.4545 21.0638 28.1131 19.93C29.5198 17.5232 28.2631 13.7083 23.6884 13.7083C20.8847 13.7083 18.5934 15.4258 17.9835 18.6179L16.0001 18.4181C16.5456 14.0393 19.815 11.75 23.6416 11.75C27.4682 11.75 30.6849 14.1979 30.6849 18.0558C30.6849 21.5926 27.1272 23.5039 25.5451 25.6307C24.7229 26.7332 24.4638 28.3273 24.4385 29.7236Z" fill="url(#paint0_linear_6921_51482)"/>
<defs>
<linearGradient id="paint0_linear_6921_51482" x1="-35.3436" y1="-21.5955" x2="92.7946" y2="78.1213" gradientUnits="userSpaceOnUse">
<stop stop-color="#FFB602"/>
<stop offset="0.536458" stop-color="#FF5A12"/>
<stop offset="0.979167" stop-color="#DD0B0B"/>
</linearGradient>
</defs>
</svg>
