<svg width="48" height="48" viewBox="0 0 48 48" fill="none" xmlns="http://www.w3.org/2000/svg">
<path d="M8.87091 41.0052C6.31714 41.0052 3.76315 40.9836 1.20981 41.0165C0.334663 41.0275 -0.0206633 40.7098 0.000923958 39.8134C0.051654 37.5106 -0.132054 35.1935 0.419717 32.9249C1.1172 30.0514 2.47504 27.6253 5.17949 26.178C5.6652 25.9183 5.67945 25.7062 5.37097 25.2887C3.75775 23.1054 3.51446 20.5896 3.63427 17.9834C3.66169 17.3884 3.93995 17.1281 4.49453 17.1136C9.0231 16.9943 12.9233 15.2354 16.4711 12.5333C16.9412 12.2029 17.434 11.9064 17.946 11.646C19.1238 10.9908 20.2401 11.1746 21.2551 11.9881C22.1833 12.7322 23.095 13.4904 24.222 13.9269C24.3938 13.9861 24.5408 14.1015 24.6391 14.2547C24.7374 14.4078 24.7815 14.5897 24.7641 14.771C24.7425 16.7896 24.784 18.8108 24.692 20.8262C24.5965 22.4217 24.0307 23.9529 23.0663 25.2257C22.764 25.643 22.6595 25.8901 23.2292 26.1893C25.6815 27.4776 27.0232 29.6439 27.7738 32.2217C27.9897 32.9624 28.275 33.379 29.1059 33.6344C32.5383 34.6897 34.6636 38.5014 33.918 42.0337C33.1425 45.7069 29.7788 48.317 26.2696 47.9688C22.4633 47.5911 19.63 44.5211 19.5978 40.7401C19.5652 36.8946 22.2142 33.7279 25.894 33.3348C26.7883 33.2394 26.8853 32.9641 26.6195 32.202C25.8581 30.0189 24.665 28.2038 22.5704 27.085C22.0823 26.8243 21.7166 26.782 21.219 27.1716C19.7579 28.313 17.9405 28.8981 16.0897 28.8227C14.7945 28.7933 13.4992 28.7959 12.2053 28.8197C10.3902 28.8843 8.61137 28.2994 7.1871 27.1695C6.69729 26.7818 6.32879 26.8015 5.83639 27.0699C2.86145 28.6931 1.62688 31.3985 1.28148 34.5901C1.1267 36.0185 1.25795 37.4736 1.18045 38.9126C1.13728 39.7134 1.4559 39.8556 2.17346 39.851C6.66944 39.8218 11.1654 39.8363 15.6616 39.8363C15.9133 39.8363 16.1655 39.8287 16.4172 39.8381C16.9033 39.8558 17.5891 39.7175 17.595 40.4205C17.601 41.1459 16.897 40.9966 16.4234 40.9992C13.9057 41.0126 11.388 41.0055 8.87026 41.0052M14.1466 27.7123C14.7571 27.7123 15.3676 27.7142 15.9781 27.7123C19.2686 27.6991 21.7404 26.0321 23.0356 23.0084C23.9079 20.9712 23.5597 18.8292 23.675 16.7227C23.738 15.5691 23.6599 14.614 22.3366 14.1823C21.8513 14.0241 21.4515 13.5808 21.0327 13.2425C19.6684 12.1411 19.1559 12.1063 17.661 13.0594C17.3281 13.2715 16.994 13.4849 16.681 13.7252C13.3522 16.2797 9.62646 17.82 5.43465 18.1849C5.05536 18.218 4.74731 18.266 4.71947 18.7762C4.55691 21.7352 5.61879 24.9054 8.41715 26.6829C10.211 27.8224 12.1705 27.7447 14.1466 27.7123ZM26.7536 34.3698C23.3784 34.3845 20.6707 37.174 20.6785 40.6282C20.686 44.0426 23.4632 46.8663 26.8151 46.8661C30.1408 46.8661 32.9644 44.0056 32.9789 40.6222C32.9803 39.8016 32.8203 38.9888 32.5081 38.2303C32.1959 37.4717 31.7376 36.7824 31.1595 36.2016C30.5813 35.6208 29.8946 35.1599 29.1386 34.8454C28.3826 34.5309 27.5723 34.3689 26.7538 34.3687" fill="url(#paint0_linear_142_11)"/>
<path d="M26.4411 17.928C26.0508 18.1481 25.7611 18.6619 25.3186 18.2767C24.8892 17.9025 25.229 17.4815 25.3563 17.0887C27.8194 9.5064 22.8248 1.9074 14.9189 1.21029C8.02134 0.601909 1.84717 6.89909 2.43478 13.951C2.48647 14.8868 2.65227 15.8128 2.92848 16.7082C3.0824 17.1651 3.60222 17.8529 2.83997 18.0981C2.03585 18.3566 2.02333 17.4759 1.86401 16.9801C0.284689 12.0607 1.99613 6.25067 6.05194 3.02395C10.0091 -0.125721 14.4345 -0.892092 19.1053 1.0893C23.7047 3.04018 26.2686 6.66535 26.9957 11.633C27.19 12.9617 27.0298 14.2611 26.9987 15.6066C27.9142 13.9278 29.0024 12.4331 30.5794 11.3701C33.8041 9.19582 37.2282 8.88611 40.6906 10.6277C44.0202 12.3026 45.85 15.1147 46.1671 18.863C46.2787 20.0507 46.1707 21.2489 45.8485 22.3973C45.7405 22.7693 45.6637 23.2658 45.1205 23.1457C44.5079 23.0102 44.6888 22.552 44.7896 22.1081C45.8532 17.3746 43.81 13.0775 39.5981 11.3378C36.344 9.99379 33.278 10.5154 30.6178 12.7688C27.8546 15.1104 26.9488 18.18 27.6331 21.7294C27.667 21.9051 27.7411 22.0728 27.7815 22.2488C27.8609 22.5951 27.8246 22.9487 27.4576 23.0658C27.0075 23.2095 26.8139 22.8658 26.7092 22.4938C26.3725 21.3126 26.2465 20.081 26.3368 18.8559C26.3584 18.5721 26.3999 18.2901 26.4411 17.928Z" fill="url(#paint1_linear_142_11)"/>
<path d="M41.156 41.0049C39.537 41.0049 37.918 41.011 36.2989 41.0027C35.8782 41.0006 35.3199 41.0768 35.296 40.4727C35.2692 39.8042 35.8346 39.836 36.3106 39.8362C39.2248 39.8362 42.1391 39.8146 45.0521 39.8516C45.774 39.8607 46.0667 39.7048 46.0499 38.9101C46.0032 36.8194 46.1295 34.7168 45.0156 32.8068C44.6797 32.2099 44.2578 31.6659 43.7636 31.1925C42.641 30.1454 42.3425 30.1266 40.9941 30.9031C40.6036 31.1608 40.1688 31.3439 39.7119 31.4429C36.6827 31.8699 33.629 32.3735 30.8611 30.4556C30.2176 30.0097 29.7839 30.466 29.3025 30.7393C28.9703 30.928 28.6382 31.3221 28.2909 30.8432C27.9887 30.4253 28.2428 30.0184 28.6214 29.8617C29.647 29.4371 29.4102 28.9404 28.9467 28.1736C28.0368 26.6679 28.0139 24.9488 28.0871 23.2416C28.1111 22.6789 28.5264 22.5603 28.9975 22.5432C32.2817 22.4239 35.1103 21.1306 37.7187 19.2102C39.7857 17.6891 40.3977 17.7287 42.4731 19.2751C42.5244 19.3259 42.5843 19.3673 42.6499 19.3974C44.5606 19.9186 44.5064 21.3885 44.4751 22.957C44.4349 25.025 44.477 27.0786 43.1775 28.8538C42.9428 29.1741 43.0775 29.3453 43.3754 29.531C46.1343 31.2512 47.0021 33.9598 47.1901 36.9958C47.2503 37.9658 47.1767 38.9436 47.2087 39.9165C47.2346 40.7052 46.8963 41.022 46.1172 41.0101C44.4628 40.985 42.8077 41.0025 41.1522 41.0036M35.9524 30.6188C36.7035 30.6188 37.2067 30.6296 37.7094 30.617C40.4998 30.5473 42.5085 28.8772 43.1639 26.1502C43.4044 25.1492 43.2608 24.1402 43.3612 23.1418C43.4926 21.8342 43.2213 20.9423 41.9364 20.1835C40.0583 19.0738 39.9575 18.9094 38.1802 20.2322C35.7096 22.0718 32.9993 23.3054 29.9065 23.5814C29.4182 23.6247 29.2394 23.7991 29.2012 24.301C29.1089 25.4942 29.3726 26.688 29.9588 27.7306C30.545 28.7731 31.4272 29.6173 32.4933 30.1558C33.6806 30.7304 34.9488 30.5902 35.952 30.6177" fill="url(#paint2_linear_142_11)"/>
<path d="M27.8517 36.5578C27.5674 36.8638 27.2816 37.1683 26.999 37.4761C26.0677 38.4904 25.1376 39.5059 24.2087 40.5225C24.1223 40.6175 23.9496 40.693 24.0031 40.8435C24.0619 41.0073 24.2406 40.9259 24.3649 40.9281C24.8573 40.937 25.3504 40.9463 25.8424 40.9292C26.2491 40.9151 26.3423 41.0846 26.2586 41.4622C26.0744 42.2927 25.9149 43.1287 25.75 43.963C25.7157 44.0438 25.6984 44.1308 25.6991 44.2186C25.6998 44.3064 25.7185 44.3932 25.7541 44.4734C25.9844 44.2293 26.1953 43.9994 26.4138 43.7767C26.5204 43.6685 26.6392 43.5401 26.8039 43.6832C26.9766 43.8334 26.847 43.9646 26.7495 44.0749C26.3418 44.5313 25.9288 44.983 25.5106 45.43C25.4216 45.5257 25.3247 45.6564 25.1669 45.5772C24.9912 45.4893 25.0283 45.3248 25.059 45.1724C25.2772 44.0884 25.4797 43.0008 25.7226 41.9221C25.8214 41.4828 25.7105 41.3432 25.2634 41.3676C24.6706 41.3999 24.0748 41.3798 23.4805 41.3765C23.348 41.3765 23.1936 41.388 23.1338 41.227C23.0781 41.0776 23.1701 40.9748 23.2666 40.8699C24.8784 39.1181 26.4893 37.365 28.0993 35.6107C28.1999 35.5014 28.3044 35.3438 28.4795 35.4304C28.677 35.528 28.6146 35.7202 28.5811 35.8849C28.3653 36.9517 28.1673 38.0232 27.9158 39.0817C27.8079 39.5397 27.9413 39.6553 28.3711 39.6367C28.9475 39.6116 29.5258 39.6258 30.1033 39.6228C30.2568 39.6228 30.4271 39.604 30.5015 39.776C30.576 39.9481 30.434 40.0589 30.3332 40.1686C29.5619 41.0071 28.789 41.8439 28.0145 42.6792C27.8919 42.8112 27.752 43.022 27.5588 42.822C27.3733 42.6296 27.5851 42.4835 27.7041 42.353C28.2761 41.7254 28.8555 41.1025 29.4276 40.474C29.5124 40.3807 29.684 40.3035 29.6109 40.1476C29.5401 39.9961 29.3671 40.0719 29.2415 40.0697C28.7493 40.0604 28.2565 40.0585 27.7641 40.0682C27.4295 40.0747 27.303 39.9533 27.3755 39.6044C27.5821 38.611 27.7695 37.6133 27.9644 36.6177L27.8517 36.5571" fill="url(#paint3_linear_142_11)"/>
<defs>
<linearGradient id="paint0_linear_142_11" x1="-25.7803" y1="-5.63762" x2="72.4614" y2="65.5922" gradientUnits="userSpaceOnUse">
<stop stop-color="#FFB602"/>
<stop offset="0.536458" stop-color="#FF5A12"/>
<stop offset="0.979167" stop-color="#DD0B0B"/>
</linearGradient>
<linearGradient id="paint1_linear_142_11" x1="-32.7178" y1="-10.6434" x2="27.1553" y2="80.1891" gradientUnits="userSpaceOnUse">
<stop stop-color="#FFB602"/>
<stop offset="0.536458" stop-color="#FF5A12"/>
<stop offset="0.979167" stop-color="#DD0B0B"/>
</linearGradient>
<linearGradient id="paint2_linear_142_11" x1="13.5664" y1="7.56152" x2="72.6087" y2="46.157" gradientUnits="userSpaceOnUse">
<stop stop-color="#FFB602"/>
<stop offset="0.536458" stop-color="#FF5A12"/>
<stop offset="0.979167" stop-color="#DD0B0B"/>
</linearGradient>
<linearGradient id="paint3_linear_142_11" x1="17.5129" y1="30.7205" x2="42.1455" y2="44.7139" gradientUnits="userSpaceOnUse">
<stop stop-color="#FFB602"/>
<stop offset="0.536458" stop-color="#FF5A12"/>
<stop offset="0.979167" stop-color="#DD0B0B"/>
</linearGradient>
</defs>
</svg>
