<svg width="60" height="60" viewBox="0 0 60 60" fill="none" xmlns="http://www.w3.org/2000/svg">
<circle cx="30" cy="30" r="29.5" stroke="#4F4F4F"/>
<g clip-path="url(#clip0_6921_62799)">
<path d="M21 28C21 28.9193 21.1811 29.8295 21.5328 30.6788C21.8846 31.5281 22.4002 32.2997 23.0503 32.9497C23.7003 33.5998 24.4719 34.1154 25.3212 34.4672C26.1705 34.8189 27.0807 35 28 35C28.9193 35 29.8295 34.8189 30.6788 34.4672C31.5281 34.1154 32.2997 33.5998 32.9497 32.9497C33.5998 32.2997 34.1154 31.5281 34.4672 30.6788C34.8189 29.8295 35 28.9193 35 28C35 27.0807 34.8189 26.1705 34.4672 25.3212C34.1154 24.4719 33.5998 23.7003 32.9497 23.0503C32.2997 22.4002 31.5281 21.8846 30.6788 21.5328C29.8295 21.1811 28.9193 21 28 21C27.0807 21 26.1705 21.1811 25.3212 21.5328C24.4719 21.8846 23.7003 22.4002 23.0503 23.0503C22.4002 23.7003 21.8846 24.4719 21.5328 25.3212C21.1811 26.1705 21 27.0807 21 28Z" stroke="url(#paint0_linear_6921_62799)" stroke-width="1.5" stroke-linecap="round" stroke-linejoin="round"/>
<path d="M39 39L33 33" stroke="url(#paint1_linear_6921_62799)" stroke-width="1.5" stroke-linecap="round" stroke-linejoin="round"/>
<path d="M28 31V31.01" stroke="url(#paint2_linear_6921_62799)" stroke-width="1.5" stroke-linecap="round" stroke-linejoin="round"/>
<path d="M27.9994 28C28.2511 28.0001 28.4988 27.9369 28.7196 27.8162C28.9405 27.6954 29.1274 27.5211 29.2632 27.3091C29.399 27.0972 29.4792 26.8545 29.4966 26.6034C29.5139 26.3523 29.4678 26.1009 29.3625 25.8723C29.2571 25.6437 29.0959 25.4452 28.8938 25.2953C28.6916 25.1453 28.455 25.0486 28.2057 25.0141C27.9563 24.9797 27.7023 25.0085 27.4671 25.0979C27.2318 25.1874 27.0228 25.3346 26.8594 25.526" stroke="url(#paint3_linear_6921_62799)" stroke-width="1.5" stroke-linecap="round" stroke-linejoin="round"/>
</g>
<defs>
<linearGradient id="paint0_linear_6921_62799" x1="10.4054" y1="14.5673" x2="48.6216" y2="44.4592" gradientUnits="userSpaceOnUse">
<stop stop-color="#FFB602"/>
<stop offset="0.536458" stop-color="#FF5A12"/>
<stop offset="0.979167" stop-color="#DD0B0B"/>
</linearGradient>
<linearGradient id="paint1_linear_6921_62799" x1="28.4595" y1="30.2431" x2="44.8378" y2="43.0539" gradientUnits="userSpaceOnUse">
<stop stop-color="#FFB602"/>
<stop offset="0.536458" stop-color="#FF5A12"/>
<stop offset="0.979167" stop-color="#DD0B0B"/>
</linearGradient>
<linearGradient id="paint2_linear_6921_62799" x1="27.2432" y1="30.9954" x2="27.244" y2="31.0516" gradientUnits="userSpaceOnUse">
<stop stop-color="#FFB602"/>
<stop offset="0.536458" stop-color="#FF5A12"/>
<stop offset="0.979167" stop-color="#DD0B0B"/>
</linearGradient>
<linearGradient id="paint3_linear_6921_62799" x1="24.861" y1="23.6216" x2="32.7432" y2="29.0486" gradientUnits="userSpaceOnUse">
<stop stop-color="#FFB602"/>
<stop offset="0.536458" stop-color="#FF5A12"/>
<stop offset="0.979167" stop-color="#DD0B0B"/>
</linearGradient>
<clipPath id="clip0_6921_62799">
<rect width="24" height="24" fill="white" transform="translate(18 18)"/>
</clipPath>
</defs>
</svg>
